<?xml version="1.0" encoding="UTF-8"?>
<svg xmlns="http://www.w3.org/2000/svg" xmlns:xlink="http://www.w3.org/1999/xlink" width="2834.88" height="2834.88" viewBox="0 0 2834.88 2834.88">
<path fill-rule="evenodd" fill="rgb(0%, 0%, 0%)" fill-opacity="1" d="M 1784.269531 1948.066406 C 1802.800781 1977.375 1820.808594 1995.628906 1828.089844 2081.6875 C 1832.179688 2130.144531 1810.480469 2165.058594 1799.480469 2182.828125 L 1784 2207.832031 C 1784 2207.832031 1884.011719 2222.117188 1920.921875 2219.738281 C 1957.820312 2217.355469 2001.878906 2238.785156 2014.96875 2254.265625 C 2028.070312 2269.742188 2031.050781 2299.507812 2031.050781 2299.507812 L 916.992188 2304.957031 L 708.691406 2299.835938 C 708.691406 2299.835938 833.648438 2235.355469 945.265625 2226.054688 C 1056.878906 2216.753906 1166.109375 2257.996094 1192.78125 2225.613281 C 1219.449219 2193.230469 1202.238281 2141.796875 1202.238281 2141.796875 C 1202.238281 2141.796875 1163.671875 2016.933594 1186.289062 1915.734375 C 1208.910156 1814.53125 1292.300781 1467.820312 1317.878906 1351.558594 C 1343.460938 1235.289062 1347.589844 1149.378906 1365.03125 1012.769531 C 1382.46875 876.148438 1371.898438 800.890625 1400.058594 724.648438 C 1428.21875 648.421875 1465.171875 588.851562 1534 555.359375 C 1602.828125 521.878906 1720.03125 523.738281 1831.648438 546.058594 C 1943.261719 568.390625 1972.71875 616.171875 1981.871094 625.921875 C 1991.011719 635.679688 1997.71875 659.449219 1987.960938 667.988281 L 1978.210938 676.519531 C 1978.210938 676.519531 1973.328125 702.730469 1967.238281 722.238281 C 1961.140625 741.738281 1931.171875 770.109375 1902.210938 798.300781 C 1873.261719 826.488281 1822.671875 840.941406 1810.511719 881.839844 C 1807.148438 893.160156 1802.019531 936.488281 1817.339844 971.671875 C 1830.949219 1002.929688 1865.449219 1038.421875 1873.808594 1074.898438 C 1889.300781 1142.449219 1868.449219 1184.410156 1920.609375 1213.308594 C 1959.679688 1234.949219 2043.21875 1247.960938 2089.261719 1311.488281 C 2106.949219 1335.898438 2111.710938 1359.570312 2118.730469 1382.671875 C 2129.25 1417.28125 2125.179688 1449.28125 2125.179688 1449.28125 C 2125.179688 1449.28125 2076.78125 1360.289062 1994.25 1349.769531 C 1981.480469 1348.140625 1943.179688 1346.699219 1909.96875 1349.328125 C 1884.140625 1351.378906 1876.960938 1355.148438 1860.421875 1357.851562 C 1833.679688 1362.199219 1805.980469 1364.140625 1791.5 1361.988281 C 1759.351562 1357.230469 1741.710938 1348.308594 1728.609375 1328.070312 L 1716.488281 1302.460938 C 1716.488281 1302.460938 1718.148438 1334.671875 1733.78125 1353.558594 C 1741.070312 1362.371094 1774.171875 1387.851562 1818.359375 1387.089844 C 1831.640625 1386.859375 1846.289062 1386.21875 1860.289062 1385.429688 C 1861.769531 1456.449219 1875.660156 1531.101562 1868.980469 1629.671875 C 1856.558594 1812.898438 1781.738281 1874.636719 1760.261719 1888.703125 C 1676.03125 1837.976562 1608.058594 1854.726562 1608.058594 1854.726562 C 1608.058594 1854.726562 1731.878906 1865.203125 1784.269531 1948.066406 "/>
</svg>
